<svg width="81" height="81" viewBox="0 0 81 81" fill="none" xmlns="http://www.w3.org/2000/svg">
<circle cx="40.3072" cy="40.0957" r="40" fill="#FF7A03"/>
<path d="M40.3072 26.0957C37.3908 26.0991 34.595 27.2592 32.5328 29.3213C30.4706 31.3835 29.3106 34.1794 29.3072 37.0957C29.3037 39.4789 30.0822 41.7975 31.5232 43.6957C31.5232 43.6957 31.8232 44.0907 31.8722 44.1477L40.3072 54.0957L48.7462 44.1427C48.7902 44.0897 49.0912 43.6957 49.0912 43.6957L49.0922 43.6927C50.5325 41.7953 51.3106 39.4778 51.3072 37.0957C51.3037 34.1794 50.1437 31.3835 48.0815 29.3213C46.0194 27.2592 43.2235 26.0991 40.3072 26.0957ZM40.3072 41.0957C39.516 41.0957 38.7427 40.8611 38.0849 40.4216C37.4271 39.9821 36.9144 39.3573 36.6117 38.6264C36.3089 37.8955 36.2297 37.0913 36.384 36.3153C36.5384 35.5394 36.9193 34.8267 37.4787 34.2673C38.0382 33.7079 38.7509 33.3269 39.5268 33.1726C40.3027 33.0182 41.107 33.0974 41.8379 33.4002C42.5688 33.7029 43.1935 34.2156 43.633 34.8734C44.0726 35.5312 44.3072 36.3046 44.3072 37.0957C44.3058 38.1562 43.884 39.1728 43.1341 39.9227C42.3843 40.6725 41.3676 41.0944 40.3072 41.0957Z" fill="white"/>
</svg>
