<svg width="147" height="42" viewBox="0 0 147 42" fill="none" xmlns="http://www.w3.org/2000/svg">
<path d="M29.6308 9.38685C32.3782 9.38685 34.5238 10.1815 36.0678 11.7709C37.6118 13.3603 38.3837 15.6649 38.3837 18.6847V33.5H35.012V18.7869C35.012 16.698 34.4671 15.12 33.3772 14.0528C32.2873 12.963 30.8456 12.418 29.0518 12.418C27.0765 12.418 25.5098 12.9857 24.3518 14.1209C23.2165 15.2335 22.6489 16.9478 22.6489 19.2637V33.5H19.2771V18.7869C19.2771 16.6753 18.7549 15.0859 17.7105 14.0188C16.6887 12.9516 15.281 12.418 13.4873 12.418C11.4892 12.418 9.89981 12.9857 8.71912 14.1209C7.56115 15.2562 6.98216 16.9705 6.98216 19.2637V33.5H3.57635V9.65931H6.84593V13.1332C7.54979 11.9526 8.53748 11.033 9.80898 10.3745C11.1032 9.71608 12.6017 9.38685 14.3047 9.38685C16.0757 9.38685 17.5969 9.73878 18.8684 10.4427C20.1627 11.1465 21.1163 12.1229 21.7293 13.3716C22.4786 12.1001 23.5344 11.1238 24.8967 10.4427C26.2818 9.73878 27.8598 9.38685 29.6308 9.38685ZM55.3638 9.38685C58.5426 9.38685 61.0516 10.3178 62.8907 12.1796C64.7298 14.0188 65.6494 16.6639 65.6494 20.1152V33.5H62.2436V26.9268H48.4841V33.5H45.1464V20.1152C45.1464 16.6639 46.066 14.0188 47.9051 12.1796C49.7443 10.3178 52.2305 9.38685 55.3638 9.38685ZM62.2436 23.9637V19.8086C62.2436 17.3792 61.6305 15.54 60.4045 14.2912C59.2011 13.0424 57.5209 12.418 55.3638 12.418C53.2068 12.418 51.5153 13.0424 50.2892 14.2912C49.0858 15.54 48.4841 17.3792 48.4841 19.8086V23.9637H62.2436ZM88.5298 33.5L83.387 26.1775C82.7513 26.2229 82.2518 26.2456 81.8885 26.2456H75.9964V33.5H72.5906V9.65931H81.8885C84.9764 9.65931 87.4059 10.3972 89.1769 11.8731C90.9479 13.3489 91.8334 15.3811 91.8334 17.9695C91.8334 19.8086 91.3793 21.3753 90.4711 22.6695C89.5629 23.9637 88.2687 24.906 86.5885 25.4963L92.2421 33.5H88.5298ZM81.7863 23.3507C83.9433 23.3507 85.5895 22.8852 86.7247 21.9543C87.86 21.0234 88.4276 19.6951 88.4276 17.9695C88.4276 16.2439 87.86 14.927 86.7247 14.0188C85.5895 13.0878 83.9433 12.6224 81.7863 12.6224H75.9964V23.3507H81.7863ZM97.336 9.65931H100.742V30.5369H113.65V33.5H97.336V9.65931ZM127.888 33.7725C125.481 33.7725 123.313 33.2502 121.383 32.2058C119.453 31.1386 117.932 29.6741 116.819 27.8123C115.729 25.9504 115.184 23.8729 115.184 21.5797C115.184 19.2864 115.729 17.2089 116.819 15.347C117.932 13.4852 119.453 12.032 121.383 10.9876C123.313 9.92043 125.481 9.38685 127.888 9.38685C130.272 9.38685 132.429 9.92043 134.359 10.9876C136.289 12.032 137.799 13.4852 138.889 15.347C139.979 17.1862 140.524 19.2637 140.524 21.5797C140.524 23.8956 139.979 25.9845 138.889 27.8464C137.799 29.6855 136.289 31.1386 134.359 32.2058C132.429 33.2502 130.272 33.7725 127.888 33.7725ZM127.888 30.7413C129.636 30.7413 131.203 30.3439 132.588 29.5493C133.996 28.7546 135.097 27.6647 135.892 26.2797C136.709 24.8719 137.118 23.3053 137.118 21.5797C137.118 19.854 136.709 18.2987 135.892 16.9137C135.097 15.506 133.996 14.4047 132.588 13.6101C131.203 12.8154 129.636 12.418 127.888 12.418C126.14 12.418 124.55 12.8154 123.12 13.6101C121.712 14.4047 120.6 15.506 119.782 16.9137C118.987 18.2987 118.59 19.854 118.59 21.5797C118.59 23.3053 118.987 24.8719 119.782 26.2797C120.6 27.6647 121.712 28.7546 123.12 29.5493C124.55 30.3439 126.14 30.7413 127.888 30.7413Z" fill="white"/>
<path d="M127.875 2.69873C127.875 2.69873 126.864 13.4152 131.082 17.6332C135.3 21.8513 146.017 20.8402 146.017 20.8402C146.017 20.8402 135.3 19.8292 131.082 24.0472C126.864 28.2653 127.875 38.9817 127.875 38.9817C127.875 38.9817 128.886 28.2653 124.668 24.0472C120.45 19.8292 109.734 20.8402 109.734 20.8402C109.734 20.8402 120.45 21.8513 124.668 17.6332C128.886 13.4152 127.875 2.69873 127.875 2.69873Z" fill="white"/>
</svg>
